<?xml version="1.0" standalone="no"?>
<!DOCTYPE svg PUBLIC "-//W3C//DTD SVG 20010904//EN"
 "http://www.w3.org/TR/2001/REC-SVG-20010904/DTD/svg10.dtd">
<svg version="1.0" xmlns="http://www.w3.org/2000/svg"
 width="419.000000pt" height="419.000000pt" viewBox="0 0 419.000000 419.000000"
 preserveAspectRatio="xMidYMid meet">
<metadata>
Created by potrace 1.11, written by Peter Selinger 2001-2013
</metadata>
<g transform="translate(0.000000,419.000000) scale(0.100000,-0.100000)"
fill="#000000" stroke="none">
<path d="M910 2218 l0 -1971 23 20 c12 11 34 31 49 43 25 21 26 25 13 39 -20
23 -8 36 50 59 48 20 49 21 25 30 l-25 10 25 10 c31 12 65 48 65 70 0 10 14
20 40 26 57 16 67 24 55 46 -8 15 -6 20 13 25 50 14 77 28 77 40 0 7 9 15 20
18 13 3 18 10 14 21 -4 10 0 16 10 17 9 1 21 3 26 4 6 1 13 3 16 4 4 0 1 7 -5
14 -9 11 -5 13 19 12 38 -2 69 27 50 50 -10 12 -7 17 16 27 39 16 38 16 27 30
-17 22 -14 90 4 103 14 11 14 14 -7 35 -20 20 -23 32 -21 77 2 38 -3 61 -16
80 -10 16 -25 42 -33 58 -8 17 -21 38 -29 48 -18 22 -24 86 -10 103 6 7 10 50
8 96 -2 81 8 126 35 158 7 8 21 36 31 62 21 58 59 98 92 98 13 0 27 8 30 18
14 34 63 100 89 116 59 39 62 47 58 142 -3 79 0 99 29 184 31 93 33 95 72 108
31 11 47 11 70 2 62 -24 130 -38 145 -30 16 8 156 4 171 -6 5 -3 7 -10 4 -15
-4 -5 2 -12 12 -16 20 -7 86 -70 97 -93 4 -8 13 -26 21 -40 20 -34 20 -110 0
-110 -7 0 -18 7 -23 17 -14 23 -39 10 -47 -26 -4 -20 0 -44 14 -75 23 -49 26
-66 12 -66 -5 0 -12 -12 -15 -26 -6 -21 2 -35 39 -77 26 -28 55 -67 65 -87 10
-20 26 -43 36 -50 15 -13 16 -11 12 25 -3 22 -17 72 -32 110 -31 84 -32 105
-8 133 21 24 69 45 88 38 6 -2 29 2 50 9 22 8 55 14 74 15 20 0 45 6 56 14 11
8 36 14 57 14 21 0 43 5 50 10 18 15 180 19 184 5 3 -8 13 -9 31 -2 15 5 59
13 97 19 59 8 72 7 82 -6 10 -13 12 -13 18 5 7 24 16 26 33 9 9 -9 12 -4 14
23 1 19 4 6 8 -31 4 -36 7 433 8 1043 l2 1107 -1180 0 -1180 0 0 -1972z m370
-326 c0 -27 -4 -41 -10 -37 -6 4 -10 28 -9 53 0 26 -2 70 -5 97 -6 50 -6 50 9
-10 8 -33 14 -79 15 -103z"/>
<path d="M1762 1930 c-28 -49 -52 -95 -52 -101 0 -7 -16 -46 -36 -86 -20 -41
-35 -76 -33 -78 12 -11 94 -5 172 14 137 33 237 25 347 -28 19 -9 45 -15 57
-13 19 3 21 8 16 40 -10 62 -41 168 -42 145 -1 -20 -4 -21 -26 -13 -19 7 -23
6 -18 -5 3 -8 1 -15 -4 -15 -14 0 -63 50 -63 64 0 8 -8 17 -17 20 -15 6 -27
-4 -36 -28 -2 -5 -9 -6 -16 -2 -11 7 -11 10 0 17 11 7 10 9 -4 9 -11 0 -20 10
-23 30 -7 35 -79 77 -100 59 -7 -6 -25 -9 -41 -7 -25 3 -28 6 -25 36 2 17 2
32 0 32 -2 0 -27 -40 -56 -90z"/>
<path d="M2107 1874 c-8 -8 3 -34 14 -34 11 0 12 27 0 34 -4 3 -11 3 -14 0z"/>
<path d="M3258 1475 c-3 -3 -29 -8 -59 -11 -67 -7 -135 -29 -171 -54 -15 -11
-31 -20 -36 -20 -4 0 -21 -14 -38 -31 -33 -35 -92 -79 -80 -61 9 15 1 15 -24
2 -11 -6 -42 -15 -70 -20 -27 -5 -69 -19 -92 -30 -34 -16 -62 -20 -150 -20
l-108 0 -25 -40 c-14 -22 -30 -40 -36 -40 -6 0 -9 -9 -6 -20 4 -14 -2 -25 -16
-35 -19 -12 -33 -35 -79 -128 -4 -9 -10 -38 -13 -64 -3 -26 -9 -49 -15 -53
-14 -9 -60 -179 -71 -265 -5 -38 -11 -75 -14 -82 -5 -14 20 -66 40 -83 7 -6
11 -18 8 -26 -3 -8 0 -21 7 -29 12 -14 7 -19 -15 -16 -5 1 3 -10 20 -26 24
-23 26 -28 12 -31 -23 -5 -22 -12 13 -49 35 -37 37 -43 11 -36 -33 8 -30 -22
5 -60 38 -40 42 -49 17 -40 -28 11 16 -51 57 -82 l34 -25 453 0 453 0 0 740
c0 407 -1 740 -3 740 -2 0 -6 -2 -9 -5z m-33 -65 c-3 -5 -10 -10 -16 -10 -5 0
-9 5 -9 10 0 6 7 10 16 10 8 0 12 -4 9 -10z m35 -50 c0 -5 -5 -10 -11 -10 -5
0 -7 5 -4 10 3 6 8 10 11 10 2 0 4 -4 4 -10z m-283 -47 c-4 -3 -2 -12 4 -19 8
-10 8 -15 -2 -18 -27 -8 -69 -13 -69 -8 0 13 45 52 58 52 9 0 12 -3 9 -7z
m-200 -49 c-3 -3 -12 -4 -19 -1 -8 3 -5 6 6 6 11 1 17 -2 13 -5z m339 -16 c5
-8 2 -9 -10 -5 -9 4 -15 3 -12 -2 3 -5 -1 -14 -10 -21 -18 -16 -40 1 -31 24 7
19 52 21 63 4z m-161 -8 c3 -5 1 -10 -4 -10 -6 0 -11 5 -11 10 0 6 2 10 4 10
3 0 8 -4 11 -10z m60 -40 c19 -8 19 -9 -2 -9 -12 -1 -25 4 -28 9 -7 12 2 12
30 0z m115 -55 c0 -8 -7 -15 -15 -15 -8 0 -15 7 -15 15 0 8 7 15 15 15 8 0 15
-7 15 -15z m90 -5 c13 -8 13 -10 -2 -10 -9 0 -20 5 -23 10 -8 13 5 13 25 0z"/>
</g>
</svg>
